<svg width="110" height="103" xmlns="http://www.w3.org/2000/svg">
 <defs>
  <linearGradient gradientTransform="matrix(1,0,0,-1,-34.75,119.65014773607254)" y2="86.2111" x2="68.4" y1="12.5762" x1="68.4" gradientUnits="userSpaceOnUse" id="svg_4">
   <stop stop-color="#473788" offset="0.3033"/>
   <stop stop-color="#2C2255" offset="0.872"/>
  </linearGradient>
  <linearGradient gradientTransform="matrix(1,0,0,-1,-34.75,119.65014773607254)" y2="86.2101" x2="68.4" y1="12.5752" x1="68.4" gradientUnits="userSpaceOnUse" id="svg_3">
   <stop stop-color="#473788" offset="0.3033"/>
   <stop stop-color="#2C2255" offset="0.872"/>
  </linearGradient>
  <linearGradient gradientTransform="matrix(1,0,0,-1,-34.75,119.65014773607254)" y2="86.2084" x2="68.4" y1="12.5771" x1="68.4" gradientUnits="userSpaceOnUse" id="svg_2">
   <stop stop-color="#473788" offset="0.3033"/>
   <stop stop-color="#2C2255" offset="0.8631"/>
  </linearGradient>
 </defs>
 <g>
  <title>Layer 1</title>
  <g id="svg_5">
   <path fill="#2C2255" d="m30.35,65.55016l-16.7,0c2.2,7.6 6.3,14.4 12.4,20.4c9.6,9.6 21.1,14.4 34.7,14.4c2.7,0 5.3,-0.2 7.9,-0.6c10.2,-1.5 19.1,-6.1 26.7,-13.8c6.1,-6 10.2,-12.8 12.4,-20.4l-6.8,0l-9.9,0l-60.7,0z" class="st0"/>
   <g>
    <path fill="#2C2255" d="m21.15,42.85016l-8.7,0c-0.3,1.9 -0.5,3.9 -0.6,5.9l10.4,0l5.2,0l75.3,0l6.9,0c-0.1,-2 -0.3,-4 -0.6,-5.9" class="st0"/>
    <path fill="#2C2255" d="m11.75,54.25016c0.1,2 0.3,4 0.6,5.9l9.1,0l6.9,0l73.6,0l6.8,0c0.3,-1.9 0.5,-3.9 0.6,-5.9" class="st0"/>
   </g>
   <path fill="#2C2255" d="m107.65,37.35016c-2.2,-7.6 -6.4,-14.5 -12.4,-20.5c-7.7,-7.6 -16.5,-12.2 -26.7,-13.7c-2.6,-0.4 -5.2,-0.6 -7.9,-0.6c-13.5,0 -25,4.8 -34.7,14.3c-6,6.1 -10.1,12.9 -12.4,20.5" class="st0"/>
   <g>
    <path fill="#F7941E" d="m8.85,51.45016c0,-25.8 19.4,-47.3 44.6,-51c-0.6,0 -1.3,0 -1.9,0c-28.3,-0.1 -51.2,22.8 -51.2,51s23,51.1 51.3,51.1c0.6,0 1.3,0 1.9,0c-25.3,-3.8 -44.7,-25.2 -44.7,-51.1z" class="st1"/>
   </g>
   <g>
    <path fill="url(#svg_4)" d="m93.95,48.75016c-0.2,-2 -0.5,-4 -1,-5.9l-64.6,0c-0.5,1.9 -0.8,3.9 -1,5.9l66.6,0z" class="st2"/>
    <path fill="url(#svg_3)" d="m93.95,54.25016l-66.6,0c0.2,2 0.5,4 1,5.9l64.5,0c0.5,-1.9 0.9,-3.9 1.1,-5.9z" class="st3"/>
    <path fill="url(#svg_2)" d="m60.65,84.85016c13.4,0 24.9,-7.9 30.3,-19.3l-60.6,0c5.3,11.4 16.9,19.3 30.3,19.3z" class="st4"/>
   </g>
   <g>
    <path fill="#FFFFFF" d="m22.45,54.25016l4.9,0l66.7,0l8.8,0l6.7,0c0,-0.9 0.1,-1.7 0.1,-2.6c0,-1 0,-1.9 -0.1,-2.8l-6.6,0l-8.8,0l-66.8,0l-5.2,0l-10.4,0c-0.1,0.9 -0.1,1.9 -0.1,2.8c0,0.9 0,1.8 0.1,2.6l10.7,0z" class="st5"/>
    <path fill="#FFFFFF" d="m30.15,37.35016l-16.5,0c-0.5,1.8 -0.9,3.6 -1.2,5.5l8.5,0l7.3,0l64.7,0l9.2,0l6.5,0c-0.3,-1.9 -0.8,-3.7 -1.3,-5.5" class="st5"/>
    <path fill="#FFFFFF" d="m102.25,60.15016l-9.2,0l-64.6,0l-6.9,0l-9.1,0c0.3,1.9 0.7,3.7 1.2,5.5l16.8,0l60.7,0l10,0l6.5,0c0.5,-1.8 1,-3.6 1.3,-5.5l-6.7,0z" class="st5"/>
   </g>
  </g>
 </g>
</svg>